<?xml version="1.0" encoding="UTF-8" standalone="no"?>
<!DOCTYPE svg PUBLIC "-//W3C//DTD SVG 1.1//EN" "http://www.w3.org/Graphics/SVG/1.1/DTD/svg11.dtd">
<svg version="1.1" xmlns="http://www.w3.org/2000/svg" xmlns:xlink="http://www.w3.org/1999/xlink" preserveAspectRatio="xMidYMid meet" viewBox="0 0 640 640" width="640" height="640"><defs><path d="M494.41 117.76C465.68 84.55 426.77 83.79 393.07 114.73C391.78 115.87 390.26 116.89 388.55 117.76C385.63 117.76 370.98 117.76 344.56 117.76C348.62 110.73 368.94 75.59 405.52 12.32C423.24 12.32 565.02 12.32 582.74 12.32C582.74 75.59 582.74 110.73 582.74 117.76C529.75 117.76 500.3 117.76 494.41 117.76Z" id="a8SuaYcA4"></path><path d="M494.41 117.76C465.68 84.55 426.77 83.79 393.07 114.73C391.78 115.87 390.26 116.89 388.55 117.76C385.63 117.76 370.98 117.76 344.56 117.76C348.62 110.73 368.94 75.59 405.52 12.32C423.24 12.32 565.02 12.32 582.74 12.32C582.74 75.59 582.74 110.73 582.74 117.76C529.75 117.76 500.3 117.76 494.41 117.76Z" id="c7E4MLvrk"></path><path d="M515.56 358.03C424.5 517.09 373.92 605.46 363.8 623.13C177.05 623.13 73.3 623.13 52.55 623.13C134.73 480.9 180.39 401.91 189.5 386.12C110.36 362.89 52.55 289.71 52.55 203.05C52.55 150.37 73.88 102.69 108.39 68.19C142.93 33.69 190.6 12.32 243.25 12.32C265.91 12.32 379.06 12.32 582.74 12.32C582.74 22.86 582.74 107.22 582.74 117.76C529.71 117.76 500.3 117.76 494.41 117.76C465.68 84.55 426.77 83.79 393.07 114.73C391.78 115.87 390.26 116.89 388.55 117.76C379.17 117.76 303.98 117.76 294.57 117.76C291.95 116.59 289.48 115.03 287.55 113.28C258.89 87.82 224.35 85.23 197.36 108.16C190.72 113.78 184.38 120.38 179.67 127.63C146.19 179.33 127.29 235.54 123.72 296.12C123.3 303.26 123.11 310.47 123.11 317.76C123.15 333.09 124.78 350.52 140.84 358.45C157.24 366.57 172.72 357.84 184.79 347.48C204.15 330.93 221.42 311.95 240.14 294.57C240.63 294.07 241.16 293.62 241.73 293.16C242 292.97 242.26 292.75 242.57 292.52C243.55 291.8 244.62 291.11 245.72 290.47C246.48 290.05 247.23 289.67 247.99 289.29C248.79 288.95 249.55 288.61 250.35 288.34C268.45 288.34 413.18 288.34 431.29 288.34C431.67 288.46 432.05 288.61 432.47 288.76C432.81 288.91 433.19 289.03 433.57 289.22C435.43 289.98 437.25 291 438.81 292.18C439.15 292.4 439.45 292.63 439.76 292.86C440.06 293.09 440.29 293.32 440.55 293.58C440.89 293.85 441.2 294.15 441.5 294.45C441.73 294.68 441.96 294.95 442.18 295.18C461.88 317.68 481.39 340.31 508.27 354.62C510.77 355.95 513.2 357.08 515.56 358.03" id="berAnO4Fj"></path><path d="M515.56 358.03C424.5 517.09 373.92 605.46 363.8 623.13C177.05 623.13 73.3 623.13 52.55 623.13C134.73 480.9 180.39 401.91 189.5 386.12C110.36 362.89 52.55 289.71 52.55 203.05C52.55 150.37 73.88 102.69 108.39 68.19C142.93 33.69 190.6 12.32 243.25 12.32C265.91 12.32 379.06 12.32 582.74 12.32C582.74 22.86 582.74 107.22 582.74 117.76C529.71 117.76 500.3 117.76 494.41 117.76C465.68 84.55 426.77 83.79 393.07 114.73C391.78 115.87 390.26 116.89 388.55 117.76C379.17 117.76 303.98 117.76 294.57 117.76C291.95 116.59 289.48 115.03 287.55 113.28C258.89 87.82 224.35 85.23 197.36 108.16C190.72 113.78 184.38 120.38 179.67 127.63C146.19 179.33 127.29 235.54 123.72 296.12C123.3 303.26 123.11 310.47 123.11 317.76C123.15 333.09 124.78 350.52 140.84 358.45C157.24 366.57 172.72 357.84 184.79 347.48C204.15 330.93 221.42 311.95 240.14 294.57C240.63 294.07 241.16 293.62 241.73 293.16C242 292.97 242.26 292.75 242.57 292.52C243.55 291.8 244.62 291.11 245.72 290.47C246.48 290.05 247.23 289.67 247.99 289.29C248.79 288.95 249.55 288.61 250.35 288.34C268.45 288.34 413.18 288.34 431.29 288.34C431.67 288.46 432.05 288.61 432.47 288.76C432.81 288.91 433.19 289.03 433.57 289.22C435.43 289.98 437.25 291 438.81 292.18C439.15 292.4 439.45 292.63 439.76 292.86C440.06 293.09 440.29 293.32 440.55 293.58C440.89 293.85 441.2 294.15 441.5 294.45C441.73 294.68 441.96 294.95 442.18 295.18C461.88 317.68 481.39 340.31 508.27 354.62C510.77 355.95 513.2 357.08 515.56 358.03" id="a3mCmvG1A8"></path><path d="M416.94 623.13L582.74 333.51L582.74 623.13L416.94 623.13Z" id="gelhHPK2l"></path><path d="M532.77 328.19C522.22 346.64 516.37 356.89 515.2 358.94C512.84 357.99 510.41 356.85 507.91 355.52C481.03 341.21 461.52 318.59 441.82 296.08C441.6 295.85 441.37 295.59 441.14 295.36C440.84 295.06 440.53 294.75 440.19 294.45C439.93 294.22 439.66 293.99 439.4 293.76C439.09 293.54 438.79 293.31 438.45 293.08C436.89 291.9 435.07 290.88 433.21 290.12C432.83 289.93 432.45 289.78 432.07 289.67C431.69 289.51 431.31 289.36 430.93 289.25C412.82 289.25 268.09 289.25 249.99 289.25C249.19 289.51 248.43 289.86 247.63 290.2C246.87 290.54 246.12 290.96 245.36 291.37C244.26 292.02 243.19 292.7 242.21 293.42C241.9 293.65 241.64 293.88 241.37 294.07C240.8 294.52 240.27 294.98 239.74 295.47C221.06 312.86 203.79 331.84 184.43 348.39C172.36 358.75 156.88 367.48 140.48 359.35C124.42 351.42 122.79 334 122.75 318.66C122.75 311.38 122.94 304.17 123.36 297.03C124.65 308.49 128.67 319.46 140.48 325.31C156.88 333.43 172.36 324.7 184.43 314.34C203.79 297.79 221.06 278.81 239.74 261.46C243.8 257.71 250.02 254.29 255.3 254.18C283.43 253.45 311.59 253.87 339.72 253.87C368.26 253.87 396.84 253.42 425.35 254.18C431.01 254.37 438.07 257.78 441.82 262.03C461.52 284.58 481.03 307.2 507.91 321.51C517.28 326.52 525.71 328.72 532.77 328.19" id="c42gU7Jbyz"></path></defs><g><g><g><use xlink:href="#a8SuaYcA4" opacity="1" fill="#ffffff" fill-opacity="1"></use><g><use xlink:href="#a8SuaYcA4" opacity="1" fill-opacity="0" stroke="#000000" stroke-width="1" stroke-opacity="0"></use></g></g><g><use xlink:href="#c7E4MLvrk" opacity="1" fill="#000000" fill-opacity="0"></use><g><use xlink:href="#c7E4MLvrk" opacity="1" fill-opacity="0" stroke="#000000" stroke-width="1" stroke-opacity="0"></use></g></g><g><use xlink:href="#berAnO4Fj" opacity="1" fill="#ff0000" fill-opacity="1"></use><g><use xlink:href="#berAnO4Fj" opacity="1" fill-opacity="0" stroke="#000000" stroke-width="1" stroke-opacity="0"></use></g></g><g><use xlink:href="#a3mCmvG1A8" opacity="1" fill="#000000" fill-opacity="0"></use><g><use xlink:href="#a3mCmvG1A8" opacity="1" fill-opacity="0" stroke="#000000" stroke-width="1" stroke-opacity="0"></use></g></g><g><use xlink:href="#gelhHPK2l" opacity="1" fill="#ffffff" fill-opacity="1"></use><g><use xlink:href="#gelhHPK2l" opacity="1" fill-opacity="0" stroke="#000000" stroke-width="1" stroke-opacity="0"></use></g></g><g><use xlink:href="#c42gU7Jbyz" opacity="1" fill="#ff0000" fill-opacity="1"></use></g></g></g></svg>