<?xml version="1.0" encoding="UTF-8" standalone="no"?>
<!DOCTYPE svg PUBLIC "-//W3C//DTD SVG 1.1//EN" "http://www.w3.org/Graphics/SVG/1.1/DTD/svg11.dtd">
<svg version="1.1" xmlns="http://www.w3.org/2000/svg" xmlns:xlink="http://www.w3.org/1999/xlink" preserveAspectRatio="xMidYMid meet" viewBox="0 0 1150 218" width="1150" height="218"><defs><path d="M-304.54 -239.57L1297.24 -239.57L1297.24 506.46L-304.54 506.46L-304.54 -239.57Z" id="bKhJcpvg"></path><text id="j17sHxQHqu" x="64.12" y="172.1" font-size="180" font-family="Orbitron" font-weight="400" font-style="normal" letter-spacing="0" alignment-baseline="before-edge" transform="matrix(1 0 0 1 -55.99643493761141 -174.53563792739192)" style="line-height:100%" xml:space="preserve" dominant-baseline="text-before-edge"><tspan x="64.12" dy="0em" alignment-baseline="before-edge" dominant-baseline="text-before-edge" text-anchor="start">web</tspan></text><style id="orbitron400normal">
    @font-face {
    font-family: "Orbitron";
    font-weight: 400;
    src: url("https://fonts.gstatic.com/s/orbitron/v17/yMJMMIlzdpvBhQQL_SC3X9yhF25-T1nyGy6BoWgz.woff2") format('woff2');
    }
    </style><path d="M606.6 41.42C596.72 30.01 583.34 29.74 571.75 40.38C571.31 40.77 570.79 41.12 570.2 41.42C569.19 41.42 564.16 41.42 555.07 41.42C556.47 39.01 563.45 26.92 576.03 5.17C582.13 5.17 630.87 5.17 636.97 5.17C636.97 26.92 636.97 39.01 636.97 41.42C618.75 41.42 608.62 41.42 606.6 41.42Z" id="b15LhEpNVO"></path><path d="M606.6 41.42C596.72 30.01 583.34 29.74 571.75 40.38C571.31 40.77 570.79 41.12 570.2 41.42C569.19 41.42 564.16 41.42 555.07 41.42C556.47 39.01 563.45 26.92 576.03 5.17C582.13 5.17 630.87 5.17 636.97 5.17C636.97 26.92 636.97 39.01 636.97 41.42C618.75 41.42 608.62 41.42 606.6 41.42Z" id="a4JSFP7gNP"></path><path d="M606.6 41.42C596.72 30.01 583.34 29.74 571.75 40.38C571.31 40.77 570.79 41.12 570.2 41.42C569.19 41.42 564.16 41.42 555.07 41.42C556.47 39.01 563.45 26.92 576.03 5.17C582.13 5.17 630.87 5.17 636.97 5.17C636.97 26.92 636.97 39.01 636.97 41.42C618.75 41.42 608.62 41.42 606.6 41.42Z" id="bs11VUL8W"></path><path d="M606.6 41.42C596.72 30.01 583.34 29.74 571.75 40.38C571.31 40.77 570.79 41.12 570.2 41.42C569.19 41.42 564.16 41.42 555.07 41.42C556.47 39.01 563.45 26.92 576.03 5.17C582.13 5.17 630.87 5.17 636.97 5.17C636.97 26.92 636.97 39.01 636.97 41.42C618.75 41.42 608.62 41.42 606.6 41.42Z" id="b1XOgzi10Z"></path><path d="M613.87 124.04C582.56 178.73 565.17 209.11 561.69 215.18C497.48 215.18 461.81 215.18 454.67 215.18C482.93 166.28 498.63 139.12 501.76 133.69C474.55 125.71 454.67 100.54 454.67 70.75C454.67 52.64 462.01 36.24 473.87 24.38C485.75 12.52 502.14 5.17 520.24 5.17C528.03 5.17 566.93 5.17 636.97 5.17C636.97 8.79 636.97 37.8 636.97 41.42C618.73 41.42 608.62 41.42 606.6 41.42C596.72 30.01 583.34 29.74 571.75 40.38C571.31 40.77 570.79 41.12 570.2 41.42C566.97 41.42 541.12 41.42 537.88 41.42C536.98 41.02 536.13 40.48 535.47 39.88C525.62 31.13 513.74 30.24 504.46 38.12C502.18 40.06 500 42.32 498.38 44.82C486.87 62.59 480.37 81.92 479.14 102.75C479 105.2 478.93 107.68 478.93 110.19C478.95 115.46 479.51 121.45 485.03 124.18C490.66 126.97 495.99 123.97 500.14 120.41C506.8 114.72 512.74 108.19 519.17 102.22C519.34 102.05 519.52 101.89 519.72 101.73C519.81 101.67 519.9 101.59 520.01 101.51C520.34 101.26 520.71 101.03 521.09 100.81C521.35 100.66 521.61 100.53 521.87 100.4C522.14 100.28 522.41 100.17 522.68 100.08C528.9 100.08 578.67 100.08 584.89 100.08C585.02 100.11 585.15 100.17 585.3 100.22C585.42 100.27 585.55 100.31 585.67 100.38C586.32 100.64 586.94 100.99 587.48 101.39C587.6 101.47 587.7 101.55 587.8 101.63C587.91 101.71 587.99 101.79 588.08 101.88C588.2 101.97 588.3 102.07 588.4 102.18C588.48 102.26 588.56 102.35 588.64 102.42C595.41 110.16 602.12 117.94 611.36 122.86C612.22 123.32 613.06 123.71 613.87 124.04" id="e1OdUKMWDU"></path><path d="M613.87 124.04C582.56 178.73 565.17 209.11 561.69 215.18C497.48 215.18 461.81 215.18 454.67 215.18C482.93 166.28 498.63 139.12 501.76 133.69C474.55 125.71 454.67 100.54 454.67 70.75C454.67 52.64 462.01 36.24 473.87 24.38C485.75 12.52 502.14 5.17 520.24 5.17C528.03 5.17 566.93 5.17 636.97 5.17C636.97 8.79 636.97 37.8 636.97 41.42C618.73 41.42 608.62 41.42 606.6 41.42C596.72 30.01 583.34 29.74 571.75 40.38C571.31 40.77 570.79 41.12 570.2 41.42C566.97 41.42 541.12 41.42 537.88 41.42C536.98 41.02 536.13 40.48 535.47 39.88C525.62 31.13 513.74 30.24 504.46 38.12C502.18 40.06 500 42.32 498.38 44.82C486.87 62.59 480.37 81.92 479.14 102.75C479 105.2 478.93 107.68 478.93 110.19C478.95 115.46 479.51 121.45 485.03 124.18C490.66 126.97 495.99 123.97 500.14 120.41C506.8 114.72 512.74 108.19 519.17 102.22C519.34 102.05 519.52 101.89 519.72 101.73C519.81 101.67 519.9 101.59 520.01 101.51C520.34 101.26 520.71 101.03 521.09 100.81C521.35 100.66 521.61 100.53 521.87 100.4C522.14 100.28 522.41 100.17 522.68 100.08C528.9 100.08 578.67 100.08 584.89 100.08C585.02 100.11 585.15 100.17 585.3 100.22C585.42 100.27 585.55 100.31 585.67 100.38C586.32 100.64 586.94 100.99 587.48 101.39C587.6 101.47 587.7 101.55 587.8 101.63C587.91 101.71 587.99 101.79 588.08 101.88C588.2 101.97 588.3 102.07 588.4 102.18C588.48 102.26 588.56 102.35 588.64 102.42C595.41 110.16 602.12 117.94 611.36 122.86C612.22 123.32 613.06 123.71 613.87 124.04" id="akX9uNTEt"></path><path d="M579.96 215.18L636.97 115.61L636.97 215.18L579.96 215.18Z" id="b3LTNJI4Qf"></path><path d="M579.96 215.18L636.97 115.61L636.97 215.18L579.96 215.18Z" id="a2f8eDDgYc"></path><path d="M536.55 70.15C536.55 72.08 534.99 73.65 533.07 73.65C532.79 73.65 531.44 73.65 529.01 73.65C529.01 76.07 529.01 77.42 529.01 77.68C529.01 79.61 527.44 81.18 525.52 81.18C523.59 81.18 522.03 79.61 522.03 77.68C522.03 77.42 522.03 76.07 522.03 73.65C519.6 73.65 518.25 73.65 517.98 73.65C517.03 73.65 516.14 73.24 515.52 72.63C514.89 71.99 514.48 71.1 514.48 70.15C514.48 68.22 516.05 66.65 517.98 66.65C518.25 66.65 519.6 66.65 522.03 66.65C522.03 64.22 522.03 62.88 522.03 62.61C522.03 60.68 523.59 59.11 525.52 59.11C526.49 59.11 527.35 59.5 527.99 60.13C528.62 60.76 529.01 61.64 529.01 62.61C529.01 62.88 529.01 64.22 529.01 66.65C531.44 66.65 532.79 66.65 533.07 66.65C534.99 66.65 536.55 68.22 536.55 70.15" id="b2ClkPmyxl"></path><path d="M536.55 70.15C536.55 72.08 534.99 73.65 533.07 73.65C532.79 73.65 531.44 73.65 529.01 73.65C529.01 76.07 529.01 77.42 529.01 77.68C529.01 79.61 527.44 81.18 525.52 81.18C523.59 81.18 522.03 79.61 522.03 77.68C522.03 77.42 522.03 76.07 522.03 73.65C519.6 73.65 518.25 73.65 517.98 73.65C517.03 73.65 516.14 73.24 515.52 72.63C514.89 71.99 514.48 71.1 514.48 70.15C514.48 68.22 516.05 66.65 517.98 66.65C518.25 66.65 519.6 66.65 522.03 66.65C522.03 64.22 522.03 62.88 522.03 62.61C522.03 60.68 523.59 59.11 525.52 59.11C526.49 59.11 527.35 59.5 527.99 60.13C528.62 60.76 529.01 61.64 529.01 62.61C529.01 62.88 529.01 64.22 529.01 66.65C531.44 66.65 532.79 66.65 533.07 66.65C534.99 66.65 536.55 68.22 536.55 70.15" id="bYxYX6HB4"></path><path d="M585.67 62.61C585.67 64.54 584.11 66.1 582.18 66.1C580.25 66.1 578.68 64.54 578.68 62.61C578.68 60.68 580.25 59.11 582.18 59.11C584.11 59.11 585.67 60.68 585.67 62.61" id="a2SLp4IwQf"></path><path d="M585.67 62.61C585.67 64.54 584.11 66.1 582.18 66.1C580.25 66.1 578.68 64.54 578.68 62.61C578.68 60.68 580.25 59.11 582.18 59.11C584.11 59.11 585.67 60.68 585.67 62.61" id="b3BlxO14R"></path><path d="M585.67 77.68C585.67 79.61 584.11 81.18 582.18 81.18C580.25 81.18 578.68 79.61 578.68 77.68C578.68 75.76 580.25 74.19 582.18 74.19C584.11 74.19 585.67 75.76 585.67 77.68" id="b2p37SeDLE"></path><path d="M585.67 77.68C585.67 79.61 584.11 81.18 582.18 81.18C580.25 81.18 578.68 79.61 578.68 77.68C578.68 75.76 580.25 74.19 582.18 74.19C584.11 74.19 585.67 75.76 585.67 77.68" id="e1DvVw8TAv"></path><path d="M593.22 70.14C593.22 72.07 591.65 73.64 589.72 73.64C587.79 73.64 586.22 72.07 586.22 70.14C586.22 68.2 587.79 66.64 589.72 66.64C591.65 66.64 593.22 68.2 593.22 70.14" id="ca0oEVtNU"></path><path d="M593.22 70.14C593.22 72.07 591.65 73.64 589.72 73.64C587.79 73.64 586.22 72.07 586.22 70.14C586.22 68.2 587.79 66.64 589.72 66.64C591.65 66.64 593.22 68.2 593.22 70.14" id="a1aKzpHLfP"></path><path d="M578.68 70.14C578.68 72.07 577.12 73.64 575.18 73.64C573.25 73.64 571.7 72.07 571.7 70.14C571.7 68.2 573.25 66.64 575.18 66.64C577.12 66.64 578.68 68.2 578.68 70.14" id="bRt28hF3i"></path><path d="M578.68 70.14C578.68 72.07 577.12 73.64 575.18 73.64C573.25 73.64 571.7 72.07 571.7 70.14C571.7 68.2 573.25 66.64 575.18 66.64C577.12 66.64 578.68 68.2 578.68 70.14" id="m1vygRSsUc"></path><path d="M619.91 113.47C616.28 119.81 614.27 123.33 613.87 124.04C613.06 123.71 612.22 123.32 611.36 122.86C602.12 117.94 595.41 110.16 588.64 102.42C588.56 102.35 588.48 102.26 588.4 102.18C588.3 102.07 588.2 101.97 588.08 101.86C587.99 101.79 587.9 101.71 587.8 101.63C587.7 101.55 587.6 101.47 587.48 101.39C586.94 100.99 586.32 100.64 585.67 100.38C585.55 100.31 585.42 100.26 585.28 100.22C585.15 100.17 585.02 100.11 584.89 100.08C578.67 100.08 528.9 100.08 522.68 100.08C522.41 100.17 522.14 100.28 521.87 100.4C521.61 100.52 521.35 100.66 521.09 100.81C520.71 101.03 520.34 101.26 520.01 101.51C519.9 101.59 519.81 101.67 519.72 101.73C519.52 101.89 519.34 102.05 519.16 102.22C512.74 108.19 506.8 114.72 500.14 120.41C495.99 123.97 490.66 126.97 485.03 124.18C479.51 121.45 478.95 115.46 478.93 110.19C478.93 107.68 479 105.2 479.14 102.75C479.58 106.69 480.97 110.46 485.03 112.47C490.66 115.27 495.99 112.26 500.14 108.7C506.8 103.01 512.74 96.49 519.16 90.52C520.55 89.23 522.69 88.05 524.51 88.02C534.18 87.77 543.86 87.91 553.53 87.91C563.34 87.91 573.17 87.75 582.97 88.02C584.92 88.08 587.35 89.26 588.64 90.72C595.41 98.47 602.12 106.25 611.36 111.17C614.58 112.89 617.48 113.65 619.91 113.47" id="by5JJiD8R"></path><path d="M619.91 113.47C616.28 119.81 614.27 123.33 613.87 124.04C613.06 123.71 612.22 123.32 611.36 122.86C602.12 117.94 595.41 110.16 588.64 102.42C588.56 102.35 588.48 102.26 588.4 102.18C588.3 102.07 588.2 101.97 588.08 101.86C587.99 101.79 587.9 101.71 587.8 101.63C587.7 101.55 587.6 101.47 587.48 101.39C586.94 100.99 586.32 100.64 585.67 100.38C585.55 100.31 585.42 100.26 585.28 100.22C585.15 100.17 585.02 100.11 584.89 100.08C578.67 100.08 528.9 100.08 522.68 100.08C522.41 100.17 522.14 100.28 521.87 100.4C521.61 100.52 521.35 100.66 521.09 100.81C520.71 101.03 520.34 101.26 520.01 101.51C519.9 101.59 519.81 101.67 519.72 101.73C519.52 101.89 519.34 102.05 519.16 102.22C512.74 108.19 506.8 114.72 500.14 120.41C495.99 123.97 490.66 126.97 485.03 124.18C479.51 121.45 478.95 115.46 478.93 110.19C478.93 107.68 479 105.2 479.14 102.75C479.58 106.69 480.97 110.46 485.03 112.47C490.66 115.27 495.99 112.26 500.14 108.7C506.8 103.01 512.74 96.49 519.16 90.52C520.55 89.23 522.69 88.05 524.51 88.02C534.18 87.77 543.86 87.91 553.53 87.91C563.34 87.91 573.17 87.75 582.97 88.02C584.92 88.08 587.35 89.26 588.64 90.72C595.41 98.47 602.12 106.25 611.36 111.17C614.58 112.89 617.48 113.65 619.91 113.47" id="aaRAPFfuZ"></path><text id="b2J0MFdoU" x="64.12" y="172.1" font-size="180" font-family="Orbitron" font-weight="normal" font-style="normal" letter-spacing="0" alignment-baseline="before-edge" transform="matrix(1 0 0 1 590.3209323455533 -175.88554621848743)" style="line-height:100%" xml:space="preserve" dominant-baseline="text-before-edge"><tspan x="64.12" dy="0em" alignment-baseline="before-edge" dominant-baseline="text-before-edge" text-anchor="start">cade</tspan></text><style id="orbitronnormalnormal">
    @font-face {
    font-family: "Orbitron";
    font-weight: normal;
    src: url("https://fonts.gstatic.com/s/orbitron/v17/yMJMMIlzdpvBhQQL_SC3X9yhF25-T1nyGy6BoWgz.woff2") format('woff2');
    }
    </style></defs><g><g><g><g><filter id="shadow16595284" x="-313.54" y="-248.57" width="1620.78" height="765.02" filterUnits="userSpaceOnUse" primitiveUnits="userSpaceOnUse"><feFlood></feFlood><feComposite in2="SourceAlpha" operator="in"></feComposite><feGaussianBlur stdDeviation="1"></feGaussianBlur><feOffset dx="1" dy="1" result="afterOffset"></feOffset><feFlood flood-color="#000000" flood-opacity="0.5"></feFlood><feComposite in2="afterOffset" operator="in"></feComposite><feMorphology operator="dilate" radius="1"></feMorphology><feComposite in2="SourceAlpha" operator="out"></feComposite></filter><path d="M-304.54 -239.57L1297.24 -239.57L1297.24 506.46L-304.54 506.46L-304.54 -239.57Z" id="l1HuwR1clM" fill="white" fill-opacity="1" filter="url(#shadow16595284)"></path></g></g><g id="a5OOkW9o2v"><use xlink:href="#j17sHxQHqu" opacity="1" fill="#ffffff" fill-opacity="1"></use></g><g><use xlink:href="#b15LhEpNVO" opacity="1" fill="#ffffff" fill-opacity="1"></use><g><use xlink:href="#b15LhEpNVO" opacity="1" fill-opacity="0" stroke="#000000" stroke-width="1" stroke-opacity="0"></use></g></g><g><use xlink:href="#a4JSFP7gNP" opacity="1" fill="#000000" fill-opacity="0"></use><g><use xlink:href="#a4JSFP7gNP" opacity="1" fill-opacity="0" stroke="#000000" stroke-width="1" stroke-opacity="0"></use></g></g><g><use xlink:href="#bs11VUL8W" opacity="1" fill="#000000" fill-opacity="0"></use><g><use xlink:href="#bs11VUL8W" opacity="1" fill-opacity="0" stroke="#000000" stroke-width="1" stroke-opacity="0"></use></g></g><g><use xlink:href="#b1XOgzi10Z" opacity="1" fill="#000000" fill-opacity="0"></use><g><use xlink:href="#b1XOgzi10Z" opacity="1" fill-opacity="0" stroke="#000000" stroke-width="1" stroke-opacity="0"></use></g></g><g><use xlink:href="#e1OdUKMWDU" opacity="1" fill="#ff0000" fill-opacity="1"></use><g><use xlink:href="#e1OdUKMWDU" opacity="1" fill-opacity="0" stroke="#000000" stroke-width="1" stroke-opacity="0"></use></g></g><g><use xlink:href="#akX9uNTEt" opacity="1" fill="#000000" fill-opacity="0"></use><g><use xlink:href="#akX9uNTEt" opacity="1" fill-opacity="0" stroke="#000000" stroke-width="1" stroke-opacity="0"></use></g></g><g><use xlink:href="#b3LTNJI4Qf" opacity="1" fill="#ffffff" fill-opacity="1"></use><g><use xlink:href="#b3LTNJI4Qf" opacity="1" fill-opacity="0" stroke="#000000" stroke-width="1" stroke-opacity="0"></use></g></g><g><use xlink:href="#a2f8eDDgYc" opacity="1" fill="#000000" fill-opacity="0"></use><g><use xlink:href="#a2f8eDDgYc" opacity="1" fill-opacity="0" stroke="#000000" stroke-width="1" stroke-opacity="0"></use></g></g><g><use xlink:href="#b2ClkPmyxl" opacity="1" fill="#ffffff" fill-opacity="1"></use><g><use xlink:href="#b2ClkPmyxl" opacity="1" fill-opacity="0" stroke="#000000" stroke-width="1" stroke-opacity="0"></use></g></g><g><use xlink:href="#bYxYX6HB4" opacity="1" fill="#000000" fill-opacity="0"></use><g><use xlink:href="#bYxYX6HB4" opacity="1" fill-opacity="0" stroke="#000000" stroke-width="1" stroke-opacity="0"></use></g></g><g><use xlink:href="#a2SLp4IwQf" opacity="1" fill="#ffffff" fill-opacity="1"></use><g><use xlink:href="#a2SLp4IwQf" opacity="1" fill-opacity="0" stroke="#000000" stroke-width="1" stroke-opacity="0"></use></g></g><g><use xlink:href="#b3BlxO14R" opacity="1" fill="#000000" fill-opacity="0"></use><g><use xlink:href="#b3BlxO14R" opacity="1" fill-opacity="0" stroke="#000000" stroke-width="1" stroke-opacity="0"></use></g></g><g><use xlink:href="#b2p37SeDLE" opacity="1" fill="#ffffff" fill-opacity="1"></use><g><use xlink:href="#b2p37SeDLE" opacity="1" fill-opacity="0" stroke="#000000" stroke-width="1" stroke-opacity="0"></use></g></g><g><use xlink:href="#e1DvVw8TAv" opacity="1" fill="#000000" fill-opacity="0"></use><g><use xlink:href="#e1DvVw8TAv" opacity="1" fill-opacity="0" stroke="#000000" stroke-width="1" stroke-opacity="0"></use></g></g><g><use xlink:href="#ca0oEVtNU" opacity="1" fill="#ffffff" fill-opacity="1"></use><g><use xlink:href="#ca0oEVtNU" opacity="1" fill-opacity="0" stroke="#000000" stroke-width="1" stroke-opacity="0"></use></g></g><g><use xlink:href="#a1aKzpHLfP" opacity="1" fill="#000000" fill-opacity="0"></use><g><use xlink:href="#a1aKzpHLfP" opacity="1" fill-opacity="0" stroke="#000000" stroke-width="1" stroke-opacity="0"></use></g></g><g><use xlink:href="#bRt28hF3i" opacity="1" fill="#ffffff" fill-opacity="1"></use><g><use xlink:href="#bRt28hF3i" opacity="1" fill-opacity="0" stroke="#000000" stroke-width="1" stroke-opacity="0"></use></g></g><g><use xlink:href="#m1vygRSsUc" opacity="1" fill="#000000" fill-opacity="0"></use><g><use xlink:href="#m1vygRSsUc" opacity="1" fill-opacity="0" stroke="#000000" stroke-width="1" stroke-opacity="0"></use></g></g><g><use xlink:href="#by5JJiD8R" opacity="1" fill="#414141" fill-opacity="1"></use><g><use xlink:href="#by5JJiD8R" opacity="1" fill-opacity="0" stroke="#000000" stroke-width="1" stroke-opacity="0"></use></g></g><g><use xlink:href="#aaRAPFfuZ" opacity="1" fill="#000000" fill-opacity="0"></use><g><use xlink:href="#aaRAPFfuZ" opacity="1" fill-opacity="0" stroke="#000000" stroke-width="1" stroke-opacity="0"></use></g></g><g id="a4CAr1dxRR"><use xlink:href="#b2J0MFdoU" opacity="1" fill="#ffffff" fill-opacity="1"></use></g></g></g></svg>