<?xml version="1.0" encoding="UTF-8" standalone="no"?>
<!DOCTYPE svg PUBLIC "-//W3C//DTD SVG 1.1//EN" "http://www.w3.org/Graphics/SVG/1.1/DTD/svg11.dtd">
<svg version="1.1" xmlns="http://www.w3.org/2000/svg" xmlns:xlink="http://www.w3.org/1999/xlink" preserveAspectRatio="xMidYMid meet" viewBox="0 0 640 640" width="640" height="640"><defs><path d="M496.24 118.64C467.59 85.53 428.8 84.77 395.2 115.61C393.91 116.75 392.4 117.77 390.69 118.64C387.78 118.64 373.17 118.64 346.83 118.64C350.88 111.63 371.14 76.59 407.61 13.51C425.28 13.51 566.63 13.51 584.3 13.51C584.3 76.59 584.3 111.63 584.3 118.64C531.47 118.64 502.1 118.64 496.24 118.64Z" id="b41ZkhlrOp"></path><path d="M517.32 360.19C426.54 518.77 376.11 606.87 366.02 624.49C179.83 624.49 76.39 624.49 55.7 624.49C137.63 482.69 183.16 403.94 192.24 388.19C113.34 365.03 55.7 292.07 55.7 205.67C55.7 153.15 76.97 105.62 111.37 71.22C145.81 36.82 193.34 15.51 245.83 15.51C268.42 15.51 381.23 15.51 584.3 15.51C584.3 26.02 584.3 110.13 584.3 120.64C531.43 120.64 502.1 120.64 496.24 120.64C467.59 87.53 428.8 86.77 395.2 117.61C393.91 118.75 392.4 119.77 390.69 120.64C381.34 120.64 306.38 120.64 296.99 120.64C294.38 119.47 291.92 117.91 289.99 116.17C261.42 90.78 226.98 88.21 200.07 111.06C193.45 116.67 187.13 123.25 182.44 130.48C149.06 182.02 130.21 238.07 126.66 298.47C126.24 305.58 126.05 312.77 126.05 320.04C126.09 335.33 127.72 352.7 143.72 360.61C160.07 368.7 175.51 360 187.55 349.67C206.85 333.17 224.07 314.25 242.72 296.92C243.22 296.42 243.74 295.97 244.31 295.52C244.58 295.33 244.84 295.1 245.15 294.87C246.13 294.15 247.19 293.47 248.29 292.83C249.04 292.41 249.8 292.03 250.56 291.66C251.35 291.31 252.11 290.97 252.9 290.71C270.95 290.71 415.25 290.71 433.3 290.71C433.68 290.82 434.06 290.97 434.48 291.13C434.82 291.28 435.2 291.39 435.57 291.58C437.43 292.34 439.25 293.36 440.8 294.53C441.14 294.76 441.44 294.99 441.74 295.21C442.05 295.44 442.27 295.67 442.54 295.93C442.88 296.2 443.18 296.5 443.48 296.8C443.71 297.03 443.94 297.29 444.17 297.52C463.81 319.96 483.26 342.52 510.05 356.78C512.55 358.11 514.97 359.24 517.32 360.19" id="a1erUCV4oO"></path><path d="M419 624.49L584.3 335.74L584.3 624.49L419 624.49Z" id="e2qinTtiwF"></path><path d="M293.13 203.93C293.13 209.53 288.59 214.08 283.03 214.08C282.23 214.08 278.3 214.08 271.26 214.08C271.26 221.11 271.26 225.01 271.26 225.77C271.26 231.37 266.72 235.91 261.15 235.91C255.55 235.91 251.01 231.37 251.01 225.77C251.01 225.01 251.01 221.11 251.01 214.08C243.97 214.08 240.07 214.08 239.28 214.08C236.52 214.08 233.94 212.9 232.13 211.12C230.31 209.27 229.14 206.7 229.14 203.93C229.14 198.33 233.68 193.79 239.28 193.79C240.07 193.79 243.97 193.79 251.01 193.79C251.01 186.75 251.01 182.85 251.01 182.06C251.01 176.46 255.55 171.92 261.15 171.92C263.95 171.92 266.45 173.05 268.31 174.87C270.12 176.72 271.26 179.26 271.26 182.06C271.26 182.85 271.26 186.75 271.26 193.79C278.3 193.79 282.23 193.79 283.03 193.79C288.59 193.79 293.13 198.33 293.13 203.93" id="ePfGmWbGN"></path><path d="M435.57 182.06C435.57 187.66 431.03 192.2 425.43 192.2C419.83 192.2 415.29 187.66 415.29 182.06C415.29 176.46 419.83 171.92 425.43 171.92C431.03 171.92 435.57 176.46 435.57 182.06" id="a6bCBjVNqp"></path><path d="M435.57 225.77C435.57 231.37 431.03 235.91 425.43 235.91C419.83 235.91 415.29 231.37 415.29 225.77C415.29 220.21 419.83 215.66 425.43 215.66C431.03 215.66 435.57 220.21 435.57 225.77" id="a373geTZ1"></path><path d="M457.45 203.9C457.45 209.5 452.91 214.04 447.31 214.04C441.71 214.04 437.16 209.5 437.16 203.9C437.16 198.29 441.71 193.75 447.31 193.75C452.91 193.75 457.45 198.29 457.45 203.9" id="b1zo9BF5g5"></path><path d="M415.29 203.9C415.29 209.5 410.75 214.04 405.15 214.04C399.55 214.04 395.04 209.5 395.04 203.9C395.04 198.29 399.55 193.75 405.15 193.75C410.75 193.75 415.29 198.29 415.29 203.9" id="g1wpuYVuBB"></path><path d="M534.84 329.54C524.32 347.93 518.49 358.15 517.32 360.19C514.97 359.24 512.55 358.11 510.05 356.78C483.26 342.52 463.81 319.96 444.17 297.52C443.94 297.29 443.71 297.03 443.48 296.8C443.18 296.5 442.88 296.2 442.54 295.89C442.27 295.67 442.01 295.44 441.74 295.21C441.44 294.99 441.14 294.76 440.8 294.53C439.25 293.36 437.43 292.34 435.57 291.58C435.2 291.39 434.82 291.24 434.44 291.13C434.06 290.97 433.68 290.82 433.3 290.71C415.25 290.71 270.95 290.71 252.9 290.71C252.11 290.97 251.35 291.31 250.56 291.66C249.8 292 249.04 292.41 248.29 292.83C247.19 293.47 246.13 294.15 245.15 294.87C244.84 295.1 244.58 295.33 244.31 295.52C243.74 295.97 243.22 296.42 242.69 296.92C224.07 314.25 206.85 333.17 187.55 349.67C175.51 360 160.07 368.7 143.72 360.61C127.72 352.7 126.09 335.33 126.05 320.04C126.05 312.77 126.24 305.58 126.66 298.47C127.94 309.9 131.95 320.83 143.72 326.66C160.07 334.76 175.51 326.05 187.55 315.72C206.85 299.22 224.07 280.3 242.69 263.01C246.73 259.26 252.94 255.85 258.2 255.74C286.24 255.02 314.32 255.44 342.37 255.44C370.82 255.44 399.32 254.98 427.74 255.74C433.38 255.93 440.42 259.34 444.17 263.58C463.81 286.05 483.26 308.61 510.05 322.88C519.4 327.87 527.8 330.07 534.84 329.54" id="b3tElfGTV4"></path></defs><g><g><g><use xlink:href="#b41ZkhlrOp" opacity="1" fill="#000000" fill-opacity="0"></use><g><use xlink:href="#b41ZkhlrOp" opacity="1" fill-opacity="0" stroke="#000000" stroke-width="1" stroke-opacity="0"></use></g></g><g><use xlink:href="#a1erUCV4oO" opacity="1" fill="#ff0000" fill-opacity="1"></use><g><use xlink:href="#a1erUCV4oO" opacity="1" fill-opacity="0" stroke="#000000" stroke-width="1" stroke-opacity="0"></use></g></g><g><use xlink:href="#e2qinTtiwF" opacity="1" fill="#ffffff" fill-opacity="1"></use><g><use xlink:href="#e2qinTtiwF" opacity="1" fill-opacity="0" stroke="#000000" stroke-width="1" stroke-opacity="0"></use></g></g><g><use xlink:href="#ePfGmWbGN" opacity="1" fill="#ffffff" fill-opacity="1"></use><g><use xlink:href="#ePfGmWbGN" opacity="1" fill-opacity="0" stroke="#000000" stroke-width="1" stroke-opacity="0"></use></g></g><g><use xlink:href="#a6bCBjVNqp" opacity="1" fill="#ffffff" fill-opacity="1"></use><g><use xlink:href="#a6bCBjVNqp" opacity="1" fill-opacity="0" stroke="#000000" stroke-width="1" stroke-opacity="0"></use></g></g><g><use xlink:href="#a373geTZ1" opacity="1" fill="#ffffff" fill-opacity="1"></use><g><use xlink:href="#a373geTZ1" opacity="1" fill-opacity="0" stroke="#000000" stroke-width="1" stroke-opacity="0"></use></g></g><g><use xlink:href="#b1zo9BF5g5" opacity="1" fill="#ffffff" fill-opacity="1"></use><g><use xlink:href="#b1zo9BF5g5" opacity="1" fill-opacity="0" stroke="#000000" stroke-width="1" stroke-opacity="0"></use></g></g><g><use xlink:href="#g1wpuYVuBB" opacity="1" fill="#ffffff" fill-opacity="1"></use><g><use xlink:href="#g1wpuYVuBB" opacity="1" fill-opacity="0" stroke="#000000" stroke-width="1" stroke-opacity="0"></use></g></g><g><use xlink:href="#b3tElfGTV4" opacity="1" fill="#414141" fill-opacity="1"></use><g><use xlink:href="#b3tElfGTV4" opacity="1" fill-opacity="0" stroke="#000000" stroke-width="1" stroke-opacity="0"></use></g></g></g></g></svg>