<?xml version="1.0" encoding="UTF-8" standalone="no"?>
<!DOCTYPE svg PUBLIC "-//W3C//DTD SVG 1.1//EN" "http://www.w3.org/Graphics/SVG/1.1/DTD/svg11.dtd">
<svg version="1.1" xmlns="http://www.w3.org/2000/svg" xmlns:xlink="http://www.w3.org/1999/xlink" preserveAspectRatio="xMidYMid meet" viewBox="0 0 640 640" width="640" height="640"><defs><path d="M582.74 117.76C529.75 117.76 500.3 117.76 494.41 117.76C465.68 84.55 426.77 83.79 393.07 114.73C391.78 115.87 390.26 116.89 388.55 117.76C385.63 117.76 370.98 117.76 344.56 117.76C348.62 110.73 368.94 75.59 405.52 12.32L582.74 12.32C582.74 75.59 582.74 110.73 582.74 117.76Z" id="e2HdtTO77"></path><path d="M582.74 117.76C529.75 117.76 500.3 117.76 494.41 117.76C465.68 84.55 426.77 83.79 393.07 114.73C391.78 115.87 390.26 116.89 388.55 117.76C385.63 117.76 370.98 117.76 344.56 117.76C348.62 110.73 368.94 75.59 405.52 12.32L582.74 12.32C582.74 75.59 582.74 110.73 582.74 117.76Z" id="aTuhuOUvA"></path><path d="M515.56 358.03L363.8 623.13C177.05 623.13 73.3 623.13 52.55 623.13C134.73 480.9 180.39 401.91 189.5 386.12C110.36 362.89 52.55 289.71 52.55 203.05C52.55 150.37 73.88 102.69 108.39 68.19C142.93 33.69 190.6 12.32 243.25 12.32C265.91 12.32 379.06 12.32 582.74 12.32C582.74 22.86 582.74 107.22 582.74 117.76C529.71 117.76 500.3 117.76 494.41 117.76C465.68 84.55 426.77 83.79 393.07 114.73C391.78 115.87 390.26 116.89 388.55 117.76C379.17 117.76 303.98 117.76 294.57 117.76C291.95 116.59 289.48 115.03 287.55 113.28C258.89 87.82 224.35 85.23 197.36 108.16C190.72 113.78 184.38 120.38 179.67 127.63C146.19 179.33 127.29 235.54 123.72 296.12C123.3 303.26 123.11 310.47 123.11 317.76C123.15 333.09 124.78 350.52 140.84 358.45C157.24 366.57 172.72 357.84 184.79 347.48C204.15 330.93 221.42 311.95 240.14 294.57C240.63 294.07 241.16 293.62 241.73 293.16C242 292.97 242.26 292.75 242.57 292.52C243.55 291.8 244.62 291.11 245.72 290.47C246.48 290.05 247.23 289.67 247.99 289.29C248.79 288.95 249.55 288.61 250.35 288.34C268.45 288.34 413.18 288.34 431.29 288.34C431.67 288.46 432.05 288.61 432.47 288.76C432.81 288.91 433.19 289.03 433.57 289.22C435.43 289.98 437.25 291 438.81 292.18C439.15 292.4 439.45 292.63 439.76 292.86C440.06 293.09 440.29 293.32 440.55 293.58C440.89 293.85 441.2 294.15 441.5 294.45C441.73 294.68 441.96 294.95 442.18 295.18C461.88 317.68 481.39 340.31 508.27 354.62C510.77 355.95 513.2 357.08 515.56 358.03" id="ah3NXCRSR"></path><path d="M582.74 623.13L416.94 623.13L582.74 333.51L582.74 623.13Z" id="bAsUkpVKC"></path><path d="M533.13 328.91C522.58 347.36 516.73 357.61 515.56 359.66C513.2 358.71 510.77 357.57 508.27 356.24C481.39 341.93 461.88 319.31 442.18 296.8C441.96 296.57 441.73 296.31 441.5 296.08C441.2 295.78 440.89 295.47 440.55 295.17C440.29 294.94 440.02 294.71 439.76 294.48C439.45 294.26 439.15 294.03 438.81 293.8C437.25 292.62 435.43 291.6 433.57 290.84C433.19 290.65 432.81 290.5 432.43 290.39C432.05 290.23 431.67 290.08 431.29 289.97C413.18 289.97 268.45 289.97 250.35 289.97C249.55 290.23 248.79 290.58 247.99 290.92C247.23 291.26 246.48 291.68 245.72 292.09C244.62 292.74 243.55 293.42 242.57 294.14C242.26 294.37 242 294.6 241.73 294.79C241.16 295.24 240.63 295.7 240.1 296.19C221.42 313.58 204.15 332.56 184.79 349.11C172.72 359.47 157.24 368.2 140.84 360.07C124.78 352.14 123.15 334.72 123.11 319.38C123.11 312.1 123.3 304.89 123.72 297.75C125.01 309.21 129.03 320.18 140.84 326.03C157.24 334.15 172.72 325.42 184.79 315.06C204.15 298.51 221.42 279.53 240.1 262.18C244.16 258.43 250.38 255.01 255.66 254.9C283.79 254.17 311.95 254.59 340.08 254.59C368.62 254.59 397.2 254.14 425.71 254.9C431.37 255.09 438.43 258.5 442.18 262.75C461.88 285.3 481.39 307.92 508.27 322.23C517.64 327.24 526.07 329.44 533.13 328.91" id="bCmmCh1tO"></path></defs><g><g><g><g><use xlink:href="#e2HdtTO77" opacity="1" fill="#ffffff" fill-opacity="1"></use><g><use xlink:href="#e2HdtTO77" opacity="1" fill-opacity="0" stroke="#000000" stroke-width="1" stroke-opacity="0"></use></g></g><g><use xlink:href="#aTuhuOUvA" opacity="1" fill="#000000" fill-opacity="0"></use><g><use xlink:href="#aTuhuOUvA" opacity="1" fill-opacity="0" stroke="#000000" stroke-width="1" stroke-opacity="0"></use></g></g><g><use xlink:href="#ah3NXCRSR" opacity="1" fill="#ff0000" fill-opacity="1"></use><g><use xlink:href="#ah3NXCRSR" opacity="1" fill-opacity="0" stroke="#000000" stroke-width="1" stroke-opacity="0"></use></g></g><g><use xlink:href="#bAsUkpVKC" opacity="1" fill="#ffffff" fill-opacity="1"></use></g><g><use xlink:href="#bCmmCh1tO" opacity="1" fill="#ff0000" fill-opacity="1"></use><g><use xlink:href="#bCmmCh1tO" opacity="1" fill-opacity="0" stroke="#000000" stroke-width="1" stroke-opacity="0"></use></g></g></g></g></g></svg>