<?xml version="1.0" encoding="UTF-8" standalone="no"?>
<!DOCTYPE svg PUBLIC "-//W3C//DTD SVG 1.1//EN" "http://www.w3.org/Graphics/SVG/1.1/DTD/svg11.dtd">
<svg version="1.1" xmlns="http://www.w3.org/2000/svg" xmlns:xlink="http://www.w3.org/1999/xlink" preserveAspectRatio="xMidYMid meet" viewBox="0 0 192 192" width="192" height="192"><defs><path d="M165.84 15.54L165.84 43.32C151.88 43.32 144.12 43.32 142.57 43.32C135 34.57 124.75 34.37 115.87 42.52C115.53 42.82 115.13 43.09 114.68 43.32C113.91 43.32 110.05 43.32 103.09 43.32L119.15 15.54L165.84 15.54Z" id="b3GearFFbH"></path><path d="M148.14 106.62L108.16 176.46L26.16 176.46C47.81 138.99 59.84 118.18 62.24 114.02C41.39 107.9 26.16 88.62 26.16 65.79C26.16 51.91 31.78 39.35 40.87 30.26C49.97 21.17 62.53 15.54 76.4 15.54C82.37 15.54 112.18 15.54 165.84 15.54L165.84 43.32C151.87 43.32 144.12 43.32 142.57 43.32C135 34.57 124.75 34.37 115.87 42.52C115.53 42.82 115.13 43.09 114.68 43.32C112.21 43.32 92.4 43.32 89.92 43.32C89.23 43.01 88.58 42.6 88.07 42.14C80.52 35.43 71.42 34.75 64.31 40.79C62.56 42.27 60.89 44.01 59.65 45.92C50.83 59.54 45.85 74.35 44.91 90.31C44.8 92.19 44.75 94.09 44.75 96.01C44.76 100.05 45.19 104.64 49.42 106.73C53.74 108.87 57.82 106.57 61 103.84C66.1 99.48 70.65 94.48 75.58 89.9C75.71 89.77 75.85 89.65 76 89.53C76.07 89.48 76.14 89.42 76.22 89.36C76.48 89.17 76.76 88.99 77.05 88.82C77.25 88.71 77.45 88.61 77.65 88.51C77.86 88.42 78.06 88.33 78.27 88.26C83.04 88.26 121.17 88.26 125.94 88.26C126.04 88.29 126.14 88.33 126.25 88.37C126.34 88.41 126.44 88.44 126.54 88.49C127.03 88.69 127.51 88.96 127.92 89.27C128.01 89.33 128.09 89.39 128.17 89.45C128.25 89.51 128.31 89.57 128.38 89.64C128.47 89.71 128.55 89.79 128.63 89.87C128.69 89.93 128.75 90 128.81 90.06C134 95.99 139.14 101.95 146.22 105.72C146.88 106.07 147.52 106.37 148.14 106.62" id="b2K2nPH0lY"></path><path d="M165.84 100.16L165.84 176.46L122.16 176.46L165.84 100.16Z" id="i9sFeYK64"></path><path d="M152.77 98.52C149.99 103.38 148.45 106.08 148.14 106.62C147.52 106.37 146.88 106.07 146.22 105.72C139.14 101.95 134 95.99 128.81 90.06C128.75 90 128.69 89.93 128.63 89.87C128.55 89.79 128.47 89.71 128.38 89.63C128.31 89.57 128.24 89.51 128.17 89.45C128.09 89.39 128.01 89.33 127.92 89.27C127.51 88.96 127.03 88.69 126.54 88.49C126.44 88.44 126.34 88.4 126.24 88.37C126.14 88.33 126.04 88.29 125.94 88.26C121.17 88.26 83.04 88.26 78.27 88.26C78.06 88.33 77.86 88.42 77.65 88.51C77.45 88.6 77.25 88.71 77.05 88.82C76.76 88.99 76.48 89.17 76.22 89.36C76.14 89.42 76.07 89.48 76 89.53C75.85 89.65 75.71 89.77 75.57 89.9C70.65 94.48 66.1 99.48 61 103.84C57.82 106.57 53.74 108.87 49.42 106.73C45.19 104.64 44.76 100.05 44.75 96.01C44.75 94.09 44.8 92.19 44.91 90.31C45.25 93.33 46.31 96.22 49.42 97.76C53.74 99.9 57.82 97.6 61 94.87C66.1 90.51 70.65 85.51 75.57 80.94C76.64 79.95 78.28 79.05 79.67 79.02C87.08 78.83 94.5 78.94 101.91 78.94C109.43 78.94 116.96 78.82 124.47 79.02C125.96 79.07 127.82 79.97 128.81 81.09C134 87.03 139.14 92.99 146.22 96.76C148.69 98.08 150.91 98.66 152.77 98.52" id="bbK6FWGnf"></path></defs><g><g><g><use xlink:href="#b3GearFFbH" opacity="1" fill="#ffffff" fill-opacity="1"></use><g><use xlink:href="#b3GearFFbH" opacity="1" fill-opacity="0" stroke="#000000" stroke-width="1" stroke-opacity="0"></use></g></g><g><use xlink:href="#b2K2nPH0lY" opacity="1" fill="#ff0000" fill-opacity="1"></use><g><use xlink:href="#b2K2nPH0lY" opacity="1" fill-opacity="0" stroke="#000000" stroke-width="1" stroke-opacity="0"></use></g></g><g><use xlink:href="#i9sFeYK64" opacity="1" fill="#dedede" fill-opacity="1"></use><g><use xlink:href="#i9sFeYK64" opacity="1" fill-opacity="0" stroke="#000000" stroke-width="1" stroke-opacity="0"></use></g></g><g><use xlink:href="#bbK6FWGnf" opacity="1" fill="#dddddd" fill-opacity="1"></use><g><use xlink:href="#bbK6FWGnf" opacity="1" fill-opacity="0" stroke="#000000" stroke-width="1" stroke-opacity="0"></use></g></g></g></g></svg>