<?xml version="1.0" encoding="UTF-8" standalone="no"?>
<!DOCTYPE svg PUBLIC "-//W3C//DTD SVG 1.1//EN" "http://www.w3.org/Graphics/SVG/1.1/DTD/svg11.dtd">
<svg version="1.1" xmlns="http://www.w3.org/2000/svg" xmlns:xlink="http://www.w3.org/1999/xlink" preserveAspectRatio="xMidYMid meet" viewBox="0 0 192 192" width="192" height="192"><defs><path d="M165.84 15.54L165.84 43.32C151.88 43.32 144.12 43.32 142.57 43.32C135 34.57 124.75 34.37 115.87 42.52C115.53 42.82 115.13 43.09 114.68 43.32C113.91 43.32 110.05 43.32 103.09 43.32L119.15 15.54L165.84 15.54Z" id="a5VAQC6Gf2"></path><path d="M148.14 106.62L108.16 176.46L26.16 176.46C47.81 138.99 59.84 118.18 62.24 114.02C41.39 107.9 26.16 88.62 26.16 65.79C26.16 51.91 31.78 39.35 40.87 30.26C49.97 21.17 62.53 15.54 76.4 15.54C82.37 15.54 112.18 15.54 165.84 15.54L165.84 43.32C151.87 43.32 144.12 43.32 142.57 43.32C135 34.57 124.75 34.37 115.87 42.52C115.53 42.82 115.13 43.09 114.68 43.32C112.21 43.32 92.4 43.32 89.92 43.32C89.23 43.01 88.58 42.6 88.07 42.14C80.52 35.43 71.42 34.75 64.31 40.79C62.56 42.27 60.89 44.01 59.65 45.92C50.83 59.54 45.85 74.35 44.91 90.31C44.8 92.19 44.75 94.09 44.75 96.01C44.76 100.05 45.19 104.64 49.42 106.73C53.74 108.87 57.82 106.57 61 103.84C66.1 99.48 70.65 94.48 75.58 89.9C75.71 89.77 75.85 89.65 76 89.53C76.07 89.48 76.14 89.42 76.22 89.36C76.48 89.17 76.76 88.99 77.05 88.82C77.25 88.71 77.45 88.61 77.65 88.51C77.86 88.42 78.06 88.33 78.27 88.26C83.04 88.26 121.17 88.26 125.94 88.26C126.04 88.29 126.14 88.33 126.25 88.37C126.34 88.41 126.44 88.44 126.54 88.49C127.03 88.69 127.51 88.96 127.92 89.27C128.01 89.33 128.09 89.39 128.17 89.45C128.25 89.51 128.31 89.57 128.38 89.64C128.47 89.71 128.55 89.79 128.63 89.87C128.69 89.93 128.75 90 128.81 90.06C134 95.99 139.14 101.95 146.22 105.72C146.88 106.07 147.52 106.37 148.14 106.62" id="a3U5NoGXu"></path><path d="M165.84 100.16L165.84 176.46L122.16 176.46L165.84 100.16Z" id="a8hLg1zwQ"></path><path d="M152.51 99.07C149.73 103.93 148.18 106.63 147.87 107.17C147.25 106.92 146.61 106.62 145.95 106.27C138.88 102.5 133.73 96.54 128.54 90.61C128.49 90.55 128.43 90.48 128.37 90.42C128.29 90.34 128.21 90.26 128.12 90.19C128.05 90.12 127.98 90.06 127.9 90C127.82 89.94 127.74 89.88 127.66 89.82C127.24 89.51 126.76 89.24 126.27 89.04C126.17 88.99 126.08 88.95 125.98 88.92C125.88 88.88 125.78 88.84 125.67 88.81C120.91 88.81 82.77 88.81 78.01 88.81C77.8 88.88 77.59 88.97 77.39 89.06C77.19 89.15 76.98 89.26 76.79 89.37C76.5 89.54 76.22 89.72 75.96 89.91C75.88 89.97 75.81 90.03 75.74 90.08C75.58 90.2 75.44 90.32 75.31 90.45C70.39 95.03 65.83 100.03 60.74 104.39C57.55 107.12 53.48 109.42 49.15 107.28C44.93 105.19 44.49 100.6 44.48 96.56C44.48 94.64 44.53 92.74 44.65 90.86C44.99 93.88 46.05 96.77 49.15 98.31C53.48 100.45 57.55 98.15 60.74 95.42C65.83 91.06 70.39 86.06 75.31 81.49C76.38 80.5 78.02 79.6 79.4 79.57C86.82 79.38 94.23 79.49 101.65 79.49C109.17 79.49 116.7 79.37 124.21 79.57C125.69 79.62 127.56 80.52 128.54 81.64C133.73 87.58 138.88 93.54 145.95 97.31C148.43 98.63 150.65 99.21 152.51 99.07" id="aJhpjnKpM"></path></defs><g><g><g><use xlink:href="#a5VAQC6Gf2" opacity="1" fill="#ffffff" fill-opacity="1"></use><g><use xlink:href="#a5VAQC6Gf2" opacity="1" fill-opacity="0" stroke="#000000" stroke-width="1" stroke-opacity="0"></use></g></g><g><use xlink:href="#a3U5NoGXu" opacity="1" fill="#ff0000" fill-opacity="1"></use><g><use xlink:href="#a3U5NoGXu" opacity="1" fill-opacity="0" stroke="#000000" stroke-width="1" stroke-opacity="0"></use></g></g><g><use xlink:href="#a8hLg1zwQ" opacity="1" fill="#dedede" fill-opacity="1"></use><g><use xlink:href="#a8hLg1zwQ" opacity="1" fill-opacity="0" stroke="#000000" stroke-width="1" stroke-opacity="0"></use></g></g><g><use xlink:href="#aJhpjnKpM" opacity="1" fill="#b00000" fill-opacity="1"></use><g><use xlink:href="#aJhpjnKpM" opacity="1" fill-opacity="0" stroke="#000000" stroke-width="1" stroke-opacity="0"></use></g></g></g></g></svg>